<?xml version="1.0" encoding="UTF-8" standalone="no"?>
<!-- Created with Inkscape (http://www.inkscape.org/) -->

<svg
   width="84.974205mm"
   height="82.977173mm"
   viewBox="0 0 84.974205 82.977173"
   version="1.1"
   id="svg1"
   xml:space="preserve"
   inkscape:version="1.4 (e7c3feb1, 2024-10-09)"
   sodipodi:docname="iovinoscatering.svg"
   xmlns:inkscape="http://www.inkscape.org/namespaces/inkscape"
   xmlns:sodipodi="http://sodipodi.sourceforge.net/DTD/sodipodi-0.dtd"
   xmlns="http://www.w3.org/2000/svg"
   xmlns:svg="http://www.w3.org/2000/svg"><sodipodi:namedview
     id="namedview1"
     pagecolor="#ffffff"
     bordercolor="#000000"
     borderopacity="0.25"
     inkscape:showpageshadow="2"
     inkscape:pageopacity="0.0"
     inkscape:pagecheckerboard="0"
     inkscape:deskcolor="#d1d1d1"
     inkscape:document-units="mm"
     inkscape:zoom="0.77535252"
     inkscape:cx="1251.0438"
     inkscape:cy="3779.5711"
     inkscape:window-width="1400"
     inkscape:window-height="750"
     inkscape:window-x="0"
     inkscape:window-y="38"
     inkscape:window-maximized="0"
     inkscape:current-layer="layer1"><inkscape:page
       x="0"
       y="0"
       width="84.974205"
       height="82.977173"
       id="page2"
       margin="0"
       bleed="0" /></sodipodi:namedview><defs
     id="defs1"><linearGradient
       id="swatch11"
       inkscape:swatch="solid"><stop
         style="stop-color:#000000;stop-opacity:0.43710692;"
         offset="0"
         id="stop11" /></linearGradient><clipPath
       clipPathUnits="userSpaceOnUse"
       id="clipPath10"><rect
         style="opacity:0.3;fill:#ffffff;stroke:#000000;stroke-width:1.02725;stroke-opacity:0.437107"
         id="rect12"
         width="85.312561"
         height="82.977135"
         x="216.00769"
         y="961.09906" /></clipPath></defs><g
     inkscape:label="Layer 1"
     inkscape:groupmode="layer"
     id="layer1"
     transform="translate(-234.31237,-940.35373)"><g
       id="g14"><rect
         style="fill:#ffffff;stroke:none;stroke-width:1.05833;stroke-opacity:0.437107"
         id="rect14"
         width="60.100399"
         height="57.354698"
         x="248.02856"
         y="953.36932" /><g
         id="g12"
         transform="translate(18.304691,-20.745316)"><path
           style="fill:#000000"
           d="m 215.53969,1044.5975 -0.13716,-84.00201 85.44936,0.0201 0.13001,83.90941 z m 52.16438,-21.7336 c 0.0889,-0.9157 0.39456,-0.7882 -3.13288,-1.3073 -1.34334,-0.1977 -2.5257,-1.1771 -2.94519,-2.4396 -0.35652,-1.073 -0.66776,-29.86862 -0.34639,-32.04777 0.24676,-1.67322 1.44961,-2.824 3.18442,-3.04656 3.02588,-0.38818 3.02676,-0.3885 3.02676,-1.09095 0,-0.43663 -0.20028,-0.73672 -0.59532,-0.89202 -0.32742,-0.12872 -4.5839,-0.21418 -9.45885,-0.18992 l -8.86354,0.0441 v 0.78183 c 0,0.86876 0.51362,1.12852 2.32564,1.17618 1.60521,0.0422 2.95518,0.88452 3.522,2.19752 0.44937,1.04093 0.50205,2.25581 0.6287,14.49759 0.16503,15.9503 0.0695,17.8446 -0.97355,19.3056 -0.91015,1.2748 -1.54508,1.5804 -3.70237,1.7818 -0.92685,0.087 -1.74451,0.2534 -1.81704,0.3707 -0.24675,0.3993 0.19727,1.5311 0.63695,1.6237 0.2409,0.051 4.48613,0.087 9.43383,0.081 l 8.99584,-0.012 z"
           id="path6-9"
           sodipodi:nodetypes="cccccsssssssscssssssssscs"
           clip-path="url(#clipPath10)" /></g></g></g></svg>
